<svg width="24" height="24" viewBox="0 0 24 24" fill="none" xmlns="http://www.w3.org/2000/svg">
<path d="M3.83953 6.63154C6.39691 2.76093 11.3247 1.22421 15.6289 2.95508C16.0132 3.10962 16.1995 3.54644 16.0449 3.93074C15.8904 4.31505 15.4536 4.50131 15.0693 4.34676C11.4263 2.8818 7.25553 4.18244 5.09103 7.45843C2.92653 10.7344 3.36601 15.0811 6.14244 17.8576C8.91887 20.634 13.2656 21.0735 16.5416 18.909C19.8176 16.7445 21.1182 12.5737 19.6532 8.93074C19.4987 8.54644 19.685 8.10962 20.0693 7.95508C20.4536 7.80053 20.8904 7.98679 21.0449 8.3711C22.7758 12.6753 21.2391 17.6031 17.3685 20.1605C13.4979 22.7179 8.36216 22.1986 5.08178 18.9182C1.8014 15.6378 1.28215 10.5021 3.83953 6.63154Z" fill="white"/>
<path fill-rule="evenodd" clip-rule="evenodd" d="M9.25 12C9.25 10.4812 10.4812 9.25 12 9.25C13.5188 9.25 14.75 10.4812 14.75 12C14.75 13.5188 13.5188 14.75 12 14.75C10.4812 14.75 9.25 13.5188 9.25 12ZM13.25 12C13.25 11.3096 12.6904 10.75 12 10.75C11.3096 10.75 10.75 11.3096 10.75 12C10.75 12.6904 11.3096 13.25 12 13.25C12.6904 13.25 13.25 12.6904 13.25 12Z" fill="white"/>
<path d="M17.8336 5.1059C18.1265 4.81301 18.6014 4.81301 18.8943 5.1059C19.1605 5.37217 19.1847 5.78883 18.9669 6.08244L18.8943 6.16656L13.9445 11.1163C13.6516 11.4092 13.1767 11.4092 12.8839 11.1163C12.6176 10.85 12.5934 10.4334 12.8112 10.1398L12.8839 10.0556L17.8336 5.1059Z" fill="white"/>
</svg>
