<svg width="24" height="24" viewBox="0 0 24 24" fill="none" xmlns="http://www.w3.org/2000/svg">
<path d="M12 13.25C12.3797 13.25 12.6935 13.5322 12.7432 13.8982L12.75 14V20C12.75 20.4142 12.4142 20.75 12 20.75C11.6203 20.75 11.3065 20.4678 11.2568 20.1018L11.25 20V14C11.25 13.5858 11.5858 13.25 12 13.25Z" fill="white"/>
<path d="M11.4697 13.4697C11.7359 13.2034 12.1526 13.1792 12.4462 13.3971L12.5303 13.4697L14.5303 15.4697C14.8232 15.7626 14.8232 16.2374 14.5303 16.5303C14.2641 16.7966 13.8474 16.8208 13.5538 16.6029L13.4697 16.5303L12 15.061L10.5303 16.5303C10.2641 16.7966 9.8474 16.8208 9.55379 16.6029L9.46967 16.5303C9.2034 16.2641 9.1792 15.8474 9.39705 15.5538L9.46967 15.4697L11.4697 13.4697Z" fill="white"/>
<path d="M9.471 3.25C9.9972 3.25 10.4924 3.48672 10.823 3.88939L10.9171 4.0151L12.3224 6.08056C12.3573 6.1319 12.4095 6.16779 12.4684 6.18253L12.529 6.19H19C20.4625 6.19007 21.6584 7.33175 21.745 8.77248L21.75 8.94V18C21.75 18.7295 21.4604 19.429 20.9447 19.9447C20.4759 20.4135 19.8551 20.6955 19.1981 20.7429L19 20.75H16C15.5858 20.75 15.25 20.4142 15.25 20C15.25 19.6203 15.5322 19.3065 15.8982 19.2568L16 19.25H19C19.3317 19.25 19.6497 19.1184 19.884 18.884C20.0849 18.6832 20.2103 18.4209 20.242 18.1411L20.25 18V8.94C20.25 8.29282 19.7581 7.7605 19.1278 7.69646L19 7.69H12.529C12.002 7.68998 11.5062 7.45274 11.1759 7.04971L11.0819 6.9239L9.67707 4.85912C9.6422 4.80791 9.59007 4.77213 9.53142 4.75745L9.471 4.75H5C4.66825 4.75 4.35028 4.88163 4.11596 5.11596C3.91511 5.3168 3.78971 5.57911 3.75797 5.85887L3.75 6V18C3.75 18.3317 3.88163 18.6497 4.11596 18.884C4.3168 19.0849 4.57911 19.2103 4.85887 19.242L5 19.25H8C8.41421 19.25 8.75 19.5858 8.75 20C8.75 20.3797 8.46785 20.6935 8.10177 20.7432L8 20.75H5C4.27053 20.75 3.571 20.4604 3.0553 19.9447C2.58647 19.4759 2.30452 18.8551 2.25713 18.1981L2.25 18V6C2.25 5.27053 2.53959 4.571 3.0553 4.0553C3.52412 3.58647 4.14487 3.30452 4.80191 3.25713L5 3.25H9.471Z" fill="white"/>
</svg>
