<svg width="24" height="24" viewBox="0 0 24 24" fill="none" xmlns="http://www.w3.org/2000/svg">
<path d="M12 14.25C12.3797 14.25 12.6935 14.5322 12.7432 14.8982L12.75 15V21C12.75 21.4142 12.4142 21.75 12 21.75C11.6203 21.75 11.3065 21.4678 11.2568 21.1018L11.25 21V15C11.25 14.5858 11.5858 14.25 12 14.25Z" fill="white"/>
<path d="M9.46967 18.4697C9.73594 18.2034 10.1526 18.1792 10.4462 18.3971L10.5303 18.4697L12 19.939L13.4697 18.4697C13.7359 18.2034 14.1526 18.1792 14.4462 18.3971L14.5303 18.4697C14.7966 18.7359 14.8208 19.1526 14.6029 19.4462L14.5303 19.5303L12.5303 21.5303C12.2641 21.7966 11.8474 21.8208 11.5538 21.6029L11.4697 21.5303L9.46967 19.5303C9.17678 19.2374 9.17678 18.7626 9.46967 18.4697Z" fill="white"/>
<path d="M9.471 3.25C9.9972 3.25 10.4924 3.48672 10.823 3.88939L10.9171 4.0151L12.3224 6.08056C12.3573 6.1319 12.4095 6.16779 12.4684 6.18253L12.529 6.19H19C20.4625 6.19007 21.6584 7.33175 21.745 8.77248L21.75 8.94V18C21.75 18.7295 21.4604 19.429 20.9447 19.9447C20.4759 20.4135 19.8551 20.6955 19.1981 20.7429L19 20.75H17C16.5858 20.75 16.25 20.4142 16.25 20C16.25 19.6203 16.5322 19.3065 16.8982 19.2568L17 19.25H19C19.3317 19.25 19.6497 19.1184 19.884 18.884C20.0849 18.6832 20.2103 18.4209 20.242 18.1411L20.25 18V8.94C20.25 8.29282 19.7581 7.7605 19.1278 7.69646L19 7.69H12.529C12.002 7.68998 11.5062 7.45274 11.1759 7.04971L11.0819 6.9239L9.67707 4.85912C9.6422 4.80791 9.59007 4.77213 9.53142 4.75745L9.471 4.75H5C4.66825 4.75 4.35028 4.88163 4.11596 5.11596C3.91511 5.3168 3.78971 5.57911 3.75797 5.85887L3.75 6V18C3.75 18.3317 3.88163 18.6497 4.11596 18.884C4.3168 19.0849 4.57911 19.2103 4.85887 19.242L5 19.25H7C7.41421 19.25 7.75 19.5858 7.75 20C7.75 20.3797 7.46785 20.6935 7.10177 20.7432L7 20.75H5C4.27053 20.75 3.571 20.4604 3.0553 19.9447C2.58647 19.4759 2.30452 18.8551 2.25713 18.1981L2.25 18V6C2.25 5.27053 2.53959 4.571 3.0553 4.0553C3.52412 3.58647 4.14487 3.30452 4.80191 3.25713L5 3.25H9.471Z" fill="white"/>
</svg>
