<svg width="26" height="26" viewBox="0 0 26 26" fill="none" xmlns="http://www.w3.org/2000/svg">
<path d="M9.99878 9.01632H16.0013" stroke="white" stroke-width="1.5" stroke-linecap="round" stroke-linejoin="round"/>
<path d="M9.99878 13.0002H13" stroke="white" stroke-width="1.5" stroke-linecap="round" stroke-linejoin="round"/>
<path d="M5.49683 4.99658H17.0016C18.1066 4.99658 19.0025 5.89239 19.0025 6.99742V17.0016" stroke="white" stroke-width="1.5" stroke-linecap="round" stroke-linejoin="round"/>
<path d="M8.49809 21.0032H20.0029C21.1079 21.0032 22.0037 20.1074 22.0037 19.0024V18.002C22.0037 17.4495 21.5558 17.0016 21.0033 17.0016H10.9991C10.4466 17.0016 9.99872 17.4495 9.99872 18.002V19.5026C9.99872 20.3314 9.32686 21.0032 8.49809 21.0032V21.0032C7.66932 21.0032 6.99747 20.3314 6.99747 19.5026V6.49721C6.99747 5.66843 6.32561 4.99658 5.49684 4.99658V4.99658C4.66807 4.99658 3.99622 5.66843 3.99622 6.49721V8.99825C3.99622 9.55076 4.44412 9.99867 4.99663 9.99867H6.99747" stroke="white" stroke-width="1.5" stroke-linecap="round" stroke-linejoin="round"/>
</svg>
