<svg width="26" height="26" viewBox="0 0 26 26" fill="none" xmlns="http://www.w3.org/2000/svg">
<path d="M10.509 19.0027V19.5149C10.509 20.1754 10.7715 20.8088 11.2388 21.2756C11.706 21.7425 12.3396 22.0045 13.0001 22.0039V22.0039C13.6606 22.0042 14.2943 21.742 14.7614 21.275C15.2286 20.808 15.4911 20.1745 15.4911 19.5139V19.0027" stroke="#2F7C9A" stroke-width="1.5" stroke-linecap="round" stroke-linejoin="round"/>
<path fill-rule="evenodd" clip-rule="evenodd" d="M18.9496 19.0026C20.084 19.0026 21.0035 18.083 21.0035 16.9487V16.9487C21.003 16.3725 20.7742 15.82 20.3672 15.4121L19.0027 14.0485V9.99884C19.0027 6.68375 16.3152 3.99634 13.0002 3.99634V3.99634C9.68507 3.99634 6.99766 6.68375 6.99766 9.99884V14.0485L5.63309 15.4121C5.22608 15.82 4.99729 16.3725 4.99683 16.9487V16.9487C4.99683 17.4934 5.21321 18.0159 5.59839 18.401C5.98356 18.7862 6.50597 19.0026 7.05068 19.0026H18.9496Z" stroke="#2F7C9A" stroke-width="1.5" stroke-linecap="round" stroke-linejoin="round"/>
</svg>
