<svg width="24" height="25" viewBox="0 0 24 25" fill="none" xmlns="http://www.w3.org/2000/svg">
<path d="M16.5962 10.4038C19.1346 12.9422 19.1346 17.0578 16.5962 19.5962C14.0578 22.1346 9.94222 22.1346 7.40381 19.5962C4.8654 17.0578 4.8654 12.9422 7.40381 10.4038C9.94222 7.8654 14.0578 7.8654 16.5962 10.4038" stroke="#77878B" stroke-width="1.5" stroke-linecap="round" stroke-linejoin="round"/>
<path d="M12 17V14.45" stroke="#77878B" stroke-width="1.5" stroke-linecap="round" stroke-linejoin="round"/>
<path d="M11.997 12.9309C11.583 12.9309 11.247 13.2669 11.25 13.6809C11.25 14.0949 11.586 14.4309 12 14.4309C12.414 14.4309 12.75 14.0949 12.75 13.6809C12.75 13.2669 12.414 12.9309 11.997 12.9309" stroke="#77878B" stroke-width="1.5" stroke-linecap="round" stroke-linejoin="round"/>
<path d="M8.26904 6.348C8.68804 4.711 10.173 3.5 11.941 3.5C14.034 3.5 15.73 5.196 15.73 7.289V9.679" stroke="#77878B" stroke-width="1.5" stroke-linecap="round" stroke-linejoin="round"/>
</svg>
