<svg width="24" height="25" viewBox="0 0 24 25" fill="none" xmlns="http://www.w3.org/2000/svg">
<path d="M18.3639 6.13604C21.8787 9.65076 21.8787 15.3492 18.3639 18.8639C14.8492 22.3787 9.15074 22.3787 5.63604 18.8639C2.12132 15.3492 2.12132 9.65074 5.63604 6.13604C9.15076 2.62132 14.8492 2.62132 18.3639 6.13604" stroke="#77878B" stroke-width="1.5" stroke-linecap="round" stroke-linejoin="round"/>
<path d="M13.9891 8.8239C15.0876 9.92244 15.0876 11.7035 13.9891 12.8021C12.8906 13.9006 11.1095 13.9006 10.0109 12.8021C8.91238 11.7035 8.91238 9.92244 10.0109 8.8239C11.1095 7.72537 12.8906 7.72537 13.9891 8.8239" stroke="#77878B" stroke-width="1.5" stroke-linecap="round" stroke-linejoin="round"/>
<path d="M17.707 19.458C16.272 17.947 14.248 17 12 17C9.75197 17 7.72797 17.947 6.29297 19.459" stroke="#77878B" stroke-width="1.5" stroke-linecap="round" stroke-linejoin="round"/>
</svg>
